<?xml version="1.0" encoding="iso-8859-1"?>
<!-- Generator: Adobe Illustrator 16.0.0, SVG Export Plug-In . SVG Version: 6.00 Build 0)  -->
<!DOCTYPE svg PUBLIC "-//W3C//DTD SVG 1.1//EN" "http://www.w3.org/Graphics/SVG/1.1/DTD/svg11.dtd">
<svg version="1.1" id="Capa_1" xmlns="http://www.w3.org/2000/svg" xmlns:xlink="http://www.w3.org/1999/xlink" x="0px" y="0px"
	 width="93.804px" height="93.804px" viewBox="0 0 93.804 93.804" style="enable-background:new 0 0 93.804 93.804;"
	 xml:space="preserve">
<g>
	<path style="fill:#1890ff;" d="M74.407,6.926c1.417-0.675,2.02-2.369,1.346-3.787s-2.371-2.021-3.787-1.347L49.74,12.362L24.325,0.276
		c-1.417-0.674-3.113-0.071-3.788,1.347c-0.674,1.418-0.071,3.113,1.346,3.788l2.171,1.033l-0.906,18.6
		c-1.224,0.75-1.72,2.307-1.089,3.632c0.204,0.43,0.505,0.78,0.862,1.047l-1.124,23.08c-1.286,0.073-2.523,0.722-3.297,1.873
		c-1.314,1.954-0.795,4.604,1.159,5.918l13.739,9.236c0.707,0.476,1.536,0.726,2.379,0.726c0.172,0,0.346-0.011,0.518-0.032
		l1.481-0.182v14.338c0,5.039,4.085,9.125,9.125,9.125s9.125-4.086,9.125-9.125v-15.5c0-0.014-0.002-0.024-0.002-0.039l1.956,0.624
		l5.389,12.437c0.697,1.607,2.267,2.568,3.915,2.568c0.565,0,1.141-0.112,1.693-0.354c2.16-0.937,3.152-3.446,2.217-5.607
		l-1.513-3.488l2.534-46.6c0.852-0.17,1.614-0.718,2.016-1.561c0.675-1.418,0.07-3.114-1.347-3.788l-0.366-0.175l0.857-15.779
		L74.407,6.926z M24.751,6.773l18.37,8.736L23.88,24.662L24.751,6.773z M24.418,53.515c-0.591-0.397-1.247-0.625-1.909-0.696
		l1.106-22.715c0.322,0.123,0.665,0.194,1.014,0.194c0.409,0,0.825-0.089,1.219-0.276l4.162-1.979l4.568,32.306L24.418,53.515z
		 M51.396,58.711c-0.277-0.276-0.584-0.521-0.913-0.736c3.975-1.303,6.85-5.038,6.85-9.449c0-5.494-4.455-9.948-9.949-9.948
		c-5.495,0-9.949,4.454-9.949,9.948c0,4.411,2.874,8.146,6.85,9.449c-1.152,0.752-2.512,1.409-2.882,2.771l-4.566,1.12l-1.466-0.985
		l-4.688-33.159L49.74,18.66l16.873,8.023L60.46,61.604L51.396,58.711z M69.049,73.862l-4.014-9.266
		c-0.489-1.13-1.443-1.992-2.616-2.367l-1.275-0.406L67.278,27l3.164,1.505c0.344,0.163,0.703,0.238,1.06,0.26L69.049,73.862z
		 M71.823,22.868l-15.466-7.357l16.287-7.745L71.823,22.868z"/>
</g>
</svg>
